<svg width="500" height="150" viewBox="0 0 500 150" fill="none" xmlns="http://www.w3.org/2000/svg">
<path d="M480 69.9931V74.0953C480 83.1607 477.876 89.7445 473.629 93.8467C469.445 97.9489 462.7 100 453.394 100C444.088 100 437.343 97.9489 433.158 93.8467C429.036 89.7445 426.975 83.0847 426.975 73.8674V69.9171C426.975 61.5101 429.068 55.2555 433.252 51.1533C437.499 47.0511 444.182 45 453.3 45C462.481 45 469.226 47.0764 473.536 51.2293C477.845 55.3821 480 61.6367 480 69.9931ZM466.978 73.8674V71.0566C466.978 66.1948 466.229 62.3204 464.73 59.4337C462.981 56.0912 459.234 54.4199 453.488 54.4199C447.679 54.4199 443.901 56.0912 442.152 59.4337C440.716 62.1685 439.997 66.0428 439.997 71.0566V73.8674C439.997 80.4006 441.121 84.8066 443.37 87.0856C444.244 88.0479 445.525 88.8835 447.211 89.5925C448.96 90.2509 451.021 90.5801 453.394 90.5801C455.83 90.5801 457.891 90.2509 459.577 89.5925C461.263 88.9342 462.575 88.1239 463.512 87.1616C464.449 86.1994 465.167 84.9332 465.666 83.3633C466.541 80.8817 466.978 77.7164 466.978 73.8674Z" fill="#E3236C"/>
<path d="M415.576 99.5442H402.554V45.4558H415.576V99.5442Z" fill="#E3236C"/>
<path d="M385.791 50.1658C389.663 53.2551 391.599 57.8131 391.599 63.8398C391.599 69.8665 389.663 74.4498 385.791 77.5898C381.981 80.6791 376.579 82.2238 369.584 82.2238H356.749V99.5442H343.727V45.4558H369.584C376.579 45.4558 381.981 47.0258 385.791 50.1658ZM378.577 63.8398C378.577 57.8637 375.361 54.8757 368.928 54.8757H356.749V72.7279H368.928C372.051 72.7279 374.424 72.0442 376.048 70.6768C377.734 69.3094 378.577 67.0304 378.577 63.8398Z" fill="white"/>
<path d="M333.347 99.5442H313.486C305.991 99.5442 300.558 98.3794 297.185 96.0497C293.875 93.6694 292.22 89.8205 292.22 84.5028V45.4558H305.242V84.5028C305.242 86.6298 305.835 88.0985 307.022 88.9089C308.208 89.7192 310.363 90.1243 313.486 90.1243H333.347V99.5442Z" fill="white"/>
<path d="M280.832 69.9931V74.0953C280.832 83.1607 278.709 89.7445 274.462 93.8467C270.277 97.9489 263.532 100 254.226 100C244.92 100 238.175 97.9489 233.991 93.8467C229.869 89.7445 227.808 83.0847 227.808 73.8674V69.9171C227.808 61.5101 229.9 55.2555 234.084 51.1533C238.331 47.0511 245.014 45 254.133 45C263.313 45 270.059 47.0764 274.368 51.2293C278.677 55.3821 280.832 61.6367 280.832 69.9931ZM267.81 73.8674V71.0566C267.81 66.1948 267.061 62.3204 265.562 59.4337C263.813 56.0912 260.066 54.4199 254.32 54.4199C248.512 54.4199 244.733 56.0912 242.984 59.4337C241.548 62.1685 240.83 66.0428 240.83 71.0566V73.8674C240.83 80.4006 241.954 84.8066 244.202 87.0856C245.077 88.0479 246.357 88.8835 248.043 89.5925C249.792 90.2509 251.853 90.5801 254.226 90.5801C256.662 90.5801 258.723 90.2509 260.409 89.5925C262.096 88.9342 263.407 88.1239 264.344 87.1616C265.281 86.1994 265.999 84.9332 266.499 83.3633C267.373 80.8817 267.81 77.7164 267.81 73.8674Z" fill="white"/>
<path d="M223.868 45.4558L202.883 96.5055C201.759 98.8352 199.76 100 196.887 100C193.889 100 191.828 98.8352 190.704 96.5055L170 45.4558H183.49L196.887 80.7044L210.284 45.4558H223.868Z" fill="white"/>
<path fill-rule="evenodd" clip-rule="evenodd" d="M20.3641 21.8932L20 33.9666L20.001 33.9662C20.0003 34.0068 20 34.0476 20 34.0883V75.5551C20 77.7502 20.8875 79.8554 22.4672 81.4075L69.7445 127.861C72.647 130.713 77.353 130.713 80.2555 127.861L127.533 81.4075C129.113 79.8554 130 77.7502 130 75.5551V34.0883C130 34.0476 130 34.0068 129.999 33.9662L130 33.9666L129.636 21.8932C129.585 20.2099 127.531 19.3792 126.289 20.5397L117.647 28.6147C117.533 28.7141 117.421 28.8173 117.312 28.9244L104.677 41.3393L92.0418 53.7543C89.1392 56.6063 89.1392 61.2302 92.0418 64.0822C94.9443 66.9342 99.6503 66.9342 102.553 64.0822L115.135 51.7191V72.9334L75 112.369L34.8649 72.9334V51.7191L47.4472 64.0822C50.3497 66.9342 55.0557 66.9342 57.9582 64.0822C60.8608 61.2302 60.8608 56.6063 57.9582 53.7543L45.3231 41.3393L32.688 28.9244C32.579 28.8173 32.4672 28.714 32.3527 28.6147L23.711 20.5397C22.469 19.3792 20.4148 20.2099 20.3641 21.8932Z" fill="url(#paint0_linear_1_254)"/>
<defs>
<linearGradient id="paint0_linear_1_254" x1="20" y1="96.6376" x2="132.465" y2="96.2073" gradientUnits="userSpaceOnUse">
<stop stop-color="#FFC95F"/>
<stop offset="0.505" stop-color="#FD468A"/>
<stop offset="1" stop-color="#B31EA7"/>
</linearGradient>
</defs>
</svg>
