<svg width="500" height="150" viewBox="0 0 500 150" fill="none" xmlns="http://www.w3.org/2000/svg">
<path d="M479.212 70.2736V74.3026C479.212 83.2061 477.096 89.6723 472.863 93.7012C468.691 97.7302 461.968 99.7447 452.692 99.7447C443.416 99.7447 436.693 97.7302 432.522 93.7012C428.413 89.6723 426.358 83.1314 426.358 74.0787V70.199C426.358 61.9421 428.444 55.7992 432.615 51.7702C436.848 47.7413 443.51 45.7268 452.599 45.7268C461.75 45.7268 468.474 47.7662 472.769 51.8449C477.065 55.9236 479.212 62.0665 479.212 70.2736ZM466.232 74.0787V71.3181C466.232 66.5431 465.485 62.738 463.991 59.9028C462.248 56.6199 458.513 54.9785 452.785 54.9785C446.996 54.9785 443.229 56.6199 441.486 59.9028C440.054 62.5887 439.338 66.3939 439.338 71.3181V74.0787C439.338 80.4952 440.459 84.8226 442.7 87.0609C443.572 88.006 444.848 88.8267 446.529 89.5231C448.272 90.1697 450.326 90.493 452.692 90.493C455.12 90.493 457.174 90.1697 458.855 89.5231C460.536 88.8764 461.843 88.0806 462.777 87.1355C463.711 86.1905 464.427 84.947 464.925 83.405C465.797 80.9677 466.232 77.859 466.232 74.0787Z" fill="#E3236C"/>
<path d="M414.995 99.297H402.015V46.1744H414.995V99.297Z" fill="#E3236C"/>
<path d="M385.306 50.8003C389.166 53.8344 391.096 58.311 391.096 64.2301C391.096 70.1492 389.166 74.6507 385.306 77.7346C381.509 80.7687 376.124 82.2858 369.151 82.2858H356.358V99.297H343.378V46.1744H369.151C376.124 46.1744 381.509 47.7164 385.306 50.8003ZM378.116 64.2301C378.116 58.3608 374.91 55.4261 368.498 55.4261H356.358V72.9595H368.498C371.61 72.9595 373.976 72.288 375.595 70.9451C377.275 69.6021 378.116 67.3638 378.116 64.2301Z" fill="#353535"/>
<path d="M333.031 99.297H313.234C305.763 99.297 300.347 98.1529 296.985 95.8649C293.686 93.5271 292.036 89.7468 292.036 84.5241V46.1744H305.016V84.5241C305.016 86.6132 305.608 88.0557 306.79 88.8515C307.973 89.6474 310.121 90.0453 313.234 90.0453H333.031V99.297Z" fill="#353535"/>
<path d="M280.685 70.2736V74.3026C280.685 83.2061 278.568 89.6723 274.335 93.7012C270.164 97.7302 263.441 99.7447 254.165 99.7447C244.889 99.7447 238.165 97.7302 233.994 93.7012C229.885 89.6723 227.831 83.1314 227.831 74.0787V70.199C227.831 61.9421 229.916 55.7992 234.088 51.7702C238.321 47.7413 244.982 45.7268 254.071 45.7268C263.223 45.7268 269.946 47.7662 274.242 51.8449C278.537 55.9236 280.685 62.0665 280.685 70.2736ZM267.705 74.0787V71.3181C267.705 66.5431 266.958 62.738 265.464 59.9028C263.721 56.6199 259.985 54.9785 254.258 54.9785C248.468 54.9785 244.702 56.6199 242.959 59.9028C241.527 62.5887 240.811 66.3939 240.811 71.3181V74.0787C240.811 80.4952 241.932 84.8226 244.173 87.0609C245.044 88.006 246.321 88.8267 248.001 89.5231C249.745 90.1697 251.799 90.493 254.165 90.493C256.593 90.493 258.647 90.1697 260.328 89.5231C262.009 88.8764 263.316 88.0806 264.25 87.1355C265.184 86.1905 265.9 84.947 266.398 83.405C267.269 80.9677 267.705 77.859 267.705 74.0787Z" fill="#353535"/>
<path d="M223.904 46.1744L202.986 96.3126C201.866 98.6006 199.874 99.7446 197.01 99.7446C194.022 99.7446 191.967 98.6006 190.847 96.3126L170.209 46.1744H183.656L197.01 80.7936L210.363 46.1744H223.904Z" fill="#353535"/>
<path fill-rule="evenodd" clip-rule="evenodd" d="M20.3641 21.8932L20 33.9666L20.001 33.9662C20.0003 34.0068 20 34.0476 20 34.0883V75.5551C20 77.7502 20.8875 79.8554 22.4672 81.4075L69.7445 127.861C72.647 130.713 77.353 130.713 80.2555 127.861L127.533 81.4075C129.113 79.8554 130 77.7502 130 75.5551V34.0883C130 34.0476 130 34.0068 129.999 33.9662L130 33.9666L129.636 21.8932C129.585 20.2099 127.531 19.3792 126.289 20.5397L117.647 28.6147C117.533 28.7141 117.421 28.8173 117.312 28.9244L104.677 41.3393L92.0418 53.7543C89.1392 56.6063 89.1392 61.2302 92.0418 64.0822C94.9443 66.9342 99.6503 66.9342 102.553 64.0822L115.135 51.7191V72.9334L75 112.369L34.8649 72.9334V51.7191L47.4472 64.0822C50.3497 66.9342 55.0557 66.9342 57.9582 64.0822C60.8608 61.2302 60.8608 56.6063 57.9582 53.7543L45.3231 41.3393L32.688 28.9244C32.579 28.8173 32.4672 28.714 32.3527 28.6147L23.711 20.5397C22.469 19.3792 20.4148 20.2099 20.3641 21.8932Z" fill="url(#paint0_linear_1_254)"/>
<defs>
<linearGradient id="paint0_linear_1_254" x1="20" y1="96.6376" x2="132.465" y2="96.2073" gradientUnits="userSpaceOnUse">
<stop stop-color="#FFC95F"/>
<stop offset="0.505" stop-color="#FD468A"/>
<stop offset="1" stop-color="#B31EA7"/>
</linearGradient>
</defs>
</svg>
